<svg width="20" height="38" viewBox="0 0 20 38" fill="none" xmlns="http://www.w3.org/2000/svg">
<path d="M5.50723 7.99927C5.50723 8.18007 5.5428 8.35911 5.61198 8.52616C5.68116 8.6932 5.78257 8.84498 5.91041 8.97283C6.03824 9.10069 6.19001 9.20212 6.35706 9.27131C6.5241 9.3405 6.70313 9.37611 6.88394 9.37611C9.44 9.37611 11.8914 10.3915 13.6988 12.1989C15.5062 14.0063 16.5216 16.4577 16.5216 19.0138C16.5216 21.5698 15.5062 24.0212 13.6988 25.8286C11.8914 27.6361 9.44 28.6514 6.88393 28.6514C6.52117 28.655 6.17451 28.8017 5.91926 29.0595C5.66403 29.3172 5.52083 29.6654 5.52083 30.0283C5.52083 30.391 5.66403 30.7392 5.91926 30.9969C6.17451 31.2547 6.52117 31.4014 6.88393 31.405C8.51118 31.405 10.1225 31.0844 11.6258 30.4618C13.1292 29.839 14.4952 28.9263 15.6458 27.7757C16.7965 26.625 17.7092 25.259 18.3319 23.7557C18.9546 22.2523 19.2751 20.6411 19.2751 19.0138C19.2751 17.3865 18.9546 15.7753 18.3319 14.2718C17.7092 12.7685 16.7965 11.4025 15.6458 10.2519C14.4952 9.10123 13.1292 8.1885 11.6258 7.56577C10.1225 6.94307 8.51118 6.62256 6.88394 6.62256C6.51881 6.62256 6.16864 6.76761 5.91045 7.02578C5.65228 7.28397 5.50723 7.63414 5.50723 7.99927Z" fill="#DD1B60"/>
<path d="M2.75377 36.6369L2.75377 24.5165C3.94355 25.4139 5.39366 25.8985 6.88404 25.897C8.7098 25.897 10.4608 25.1717 11.7518 23.8808C13.0428 22.5897 13.7681 20.8387 13.7681 19.0129C13.7681 17.1873 13.0428 15.4363 11.7518 14.1452C10.4608 12.8542 8.7098 12.129 6.88404 12.129C6.51887 12.129 6.16867 12.274 5.91046 12.5322C5.65226 12.7904 5.50719 13.1406 5.50719 13.5058C5.50719 13.871 5.65226 14.2212 5.91046 14.4794C6.16867 14.7376 6.51887 14.8827 6.88404 14.8827C7.70096 14.8827 8.49954 15.1248 9.1788 15.5787C9.85806 16.0326 10.3875 16.6776 10.7001 17.4324C11.0128 18.1871 11.0946 19.0176 10.9352 19.8188C10.7759 20.62 10.3825 21.3561 9.80486 21.9336C9.22722 22.5113 8.49125 22.9047 7.69002 23.0642C6.88881 23.2235 6.05831 23.1417 5.30363 22.8291C4.54888 22.5164 3.90369 21.9871 3.44982 21.3078C2.99596 20.6285 2.75377 19.8299 2.75377 19.0131L2.75377 1.3906C2.75556 1.20865 2.72133 1.02813 2.65288 0.859497C2.58457 0.690862 2.48341 0.537457 2.35544 0.408145C2.22733 0.278834 2.07504 0.17618 1.90707 0.106125C1.73911 0.036069 1.55891 -5.33679e-07 1.37693 -5.41634e-07C1.19508 -5.49583e-07 1.01488 0.0360689 0.846915 0.106125C0.67895 0.17618 0.526653 0.278834 0.398549 0.408145C0.270582 0.537457 0.16942 0.690862 0.101107 0.859497C0.0326557 1.02813 -0.00157075 1.20865 0.000216423 1.3906L0.000214883 36.6369C0.00378828 36.9996 0.150448 37.3463 0.408306 37.6015C0.666026 37.8568 1.01419 38 1.37692 38C1.7398 38 2.08796 37.8568 2.34568 37.6015C2.60354 37.3463 2.7502 36.9996 2.75377 36.6369Z" fill="#DD1B60"/>
</svg>
