<svg width="44" height="38" viewBox="0 0 44 38" fill="none" xmlns="http://www.w3.org/2000/svg">
<path d="M32.5714 38V35.2857C32.5714 34.9292 32.5011 34.5763 32.3647 34.2469C32.2284 33.9177 32.0285 33.6185 31.7764 33.3663C31.5242 33.1143 31.225 32.9144 30.8958 32.778C30.5665 32.6416 30.2135 32.5714 29.857 32.5714H18.9992C15.3998 32.5714 11.9479 31.1415 9.40269 28.5964C6.85754 26.0512 5.42767 22.5994 5.42761 19C5.42761 17.2178 5.77865 15.453 6.46069 13.8064C7.14273 12.1598 8.14241 10.6638 9.40265 9.40351C10.6629 8.14329 12.159 7.14365 13.8056 6.46163C15.4521 5.77961 17.2169 5.42861 18.9992 5.42863H29.8562C30.2127 5.42873 30.5659 5.3586 30.8952 5.22226C31.2246 5.08589 31.524 4.88597 31.776 4.63392C32.0283 4.38185 32.2282 4.08259 32.3647 3.75322C32.5011 3.42386 32.5714 3.07084 32.5714 2.71431V0H18.9998C16.5047 -1.43206e-10 14.034 0.491451 11.7288 1.44629C9.42366 2.40113 7.32913 3.80067 5.56485 5.56498C3.80054 7.3293 2.40103 9.42385 1.44621 11.729C0.491398 14.0342 -2.67329e-05 16.5049 1.09071e-09 19C-9.44928e-10 24.039 2.00175 28.8718 5.56489 32.435C9.12804 35.9982 13.9607 38 18.9998 38H32.5714Z" fill="#CDCDCD"/>
<path d="M10.8562 19C10.8562 21.1596 11.7141 23.2307 13.2411 24.7576C14.7681 26.2847 16.8392 27.1425 18.9987 27.1425H32.5713C34.0111 27.1425 35.3917 27.7146 36.4097 28.7326C37.4277 29.7506 37.9998 31.1314 37.9998 32.5712V37.9998H43.4284V32.5714C43.4284 29.692 42.2846 26.9304 40.2485 24.8942C38.2123 22.8581 35.4507 21.7143 32.5713 21.7143H18.9991C18.2793 21.7143 17.5889 21.4283 17.0798 20.9194C16.5708 20.4103 16.2848 19.7199 16.2848 19C16.2848 18.2801 16.5708 17.5897 17.0798 17.0807C17.5889 16.5717 18.2793 16.2857 18.9991 16.2857H32.5713C35.4507 16.2857 38.2123 15.1418 40.2485 13.1057C42.2846 11.0696 43.4284 8.30809 43.4284 5.42863V0H37.9989V5.42863C37.9989 6.86819 37.4271 8.24882 36.4093 9.26682C35.3915 10.2848 34.0109 10.8568 32.5713 10.8571H18.9991C17.9298 10.857 16.8709 11.0676 15.8829 11.4768C14.8949 11.886 13.9972 12.4858 13.2411 13.2419C12.485 13.9981 11.8852 14.8958 11.476 15.8838C11.0667 16.8717 10.8562 17.9306 10.8562 19Z" fill="#CDCDCD"/>
</svg>
