<svg width="24" height="24" viewBox="0 0 24 24" fill="none" xmlns="http://www.w3.org/2000/svg">
<path d="M7.00022 5H17.0002V6C17.0002 6.55 17.4502 7 18.0002 7C18.5502 7 19.0002 6.55 19.0002 6V3C19.0002 1.9 18.1002 1.01 17.0002 1.01L7.00022 1C5.90022 1 5.00022 1.9 5.00022 3V6C5.00022 6.55 5.45022 7 6.00022 7C6.55022 7 7.00022 6.55 7.00022 6V5ZM16.1202 15.88L19.2902 12.71C19.6802 12.32 19.6802 11.69 19.2902 11.3L16.1202 8.13C15.7302 7.74 15.0902 7.74 14.7002 8.13C14.3102 8.52 14.3102 9.15 14.7002 9.54L17.1702 12L14.7002 14.47C14.3102 14.86 14.3102 15.49 14.7002 15.88C15.0902 16.27 15.7302 16.27 16.1202 15.88ZM9.29022 14.46L6.83021 12L9.29022 9.54C9.68021 9.15 9.68021 8.52 9.29022 8.13C8.90022 7.74 8.26021 7.74 7.87021 8.13L4.70021 11.3C4.31021 11.69 4.31021 12.32 4.70021 12.71L7.87021 15.88C8.26021 16.27 8.90022 16.27 9.29022 15.88C9.69022 15.49 9.68021 14.85 9.29022 14.46ZM17.0002 19H7.00022V18C7.00022 17.45 6.55022 17 6.00022 17C5.45022 17 5.00022 17.45 5.00022 18V21C5.00022 22.1 5.90022 23 7.00022 23H17.0002C18.1002 23 19.0002 22.1 19.0002 21V18C19.0002 17.45 18.5502 17 18.0002 17C17.4502 17 17.0002 17.45 17.0002 18V19Z" fill="#0067F9"/>
</svg>
