<svg width="64" height="38" viewBox="0 0 64 38" fill="none" xmlns="http://www.w3.org/2000/svg">
<path d="M58.7781 12.7385L50.4069 4.3674C50.4018 4.36223 50.3962 4.35745 50.391 4.35228C50.3858 4.34711 50.3797 4.34014 50.3737 4.33418C47.9309 1.89158 44.7104 0.380503 41.2705 0.0627588C37.8305 -0.254985 34.388 0.640631 31.539 2.59442C28.6899 0.640631 25.2474 -0.254985 21.8074 0.0627588C18.3675 0.380503 15.1471 1.89158 12.7042 4.33418L4.33308 12.7051C1.72494 15.3139 0.185196 18.8028 0.0156505 22.4877C-0.153895 26.1728 1.05898 29.7884 3.41654 32.6257C5.77412 35.4628 9.10636 37.3174 12.7601 37.8255C16.4139 38.3336 20.1258 37.4588 23.168 35.3725C25.6313 37.0617 28.548 37.9661 31.5348 37.9671C34.5217 37.9679 37.4388 37.0651 39.9031 35.3773C42.9418 37.4765 46.6557 38.3634 50.315 37.8641C53.9744 37.3645 57.3146 35.5149 59.6799 32.6782C62.0449 29.8415 63.2636 26.2229 63.0969 22.5335C62.93 18.8439 61.3896 15.3502 58.7781 12.7385ZM18.6224 31.1806C16.7326 32.0832 14.5846 32.2885 12.558 31.7605C10.5314 31.2327 8.75674 30.0052 7.54756 28.2953C6.3384 26.5854 5.77261 24.5032 5.95021 22.4165C6.12778 20.3298 7.03731 18.373 8.51805 16.8921L16.889 8.52094C18.1883 7.22335 19.8574 6.35978 21.6672 6.04885C23.477 5.73792 25.3387 5.99485 26.9965 6.78436L21.0751 12.7051C18.8044 14.9641 17.3343 17.9035 16.889 21.0754C16.7909 21.769 16.7415 22.4684 16.741 23.1689C16.7351 25.938 17.5116 28.6524 18.9811 30.9995C18.8625 31.0628 18.7429 31.1229 18.6224 31.18V31.1806ZM37.8172 29.4478C36.1503 31.1038 33.8948 32.0312 31.5451 32.0275C29.1954 32.0235 26.9432 31.0883 25.2816 29.4269C23.6202 27.7653 22.685 25.5131 22.681 23.1634C22.6772 20.8136 23.6047 18.5583 25.2607 16.8913L31.539 10.613L37.8172 16.8913C39.4794 18.5576 40.4128 20.8152 40.4128 23.1689C40.4128 25.5224 39.4794 27.78 37.8172 29.4464V29.4478ZM54.5925 29.481C53.287 30.7831 51.6091 31.6471 49.791 31.9537C47.9729 32.2602 46.1044 31.994 44.4442 31.1919C44.3248 31.1344 44.2067 31.0741 44.0899 31.0111C45.5639 28.6613 46.3429 25.9426 46.3369 23.1689C46.3363 22.4684 46.287 21.769 46.1889 21.0754C45.7437 17.9035 44.2735 14.9641 42.0028 12.7051L36.1176 6.82017L36.0844 6.78695C37.7414 5.9978 39.6021 5.74068 41.4111 6.05088C43.2201 6.36109 44.8886 7.22341 46.1881 8.51954C46.1941 8.52551 46.1997 8.53188 46.2054 8.53785C46.2112 8.54381 46.2162 8.54779 46.2214 8.55297L54.5533 16.8849L54.5931 16.9247C56.258 18.5898 57.1935 20.8482 57.1935 23.2029C57.1935 25.5576 56.258 27.816 54.5931 29.4812L54.5925 29.481Z" fill="#CDCDCD"/>
</svg>
