<svg width="51" height="50" viewBox="0 0 51 50" fill="none" xmlns="http://www.w3.org/2000/svg">
<g clip-path="url(#clip0)">
<path opacity="0.195126" d="M34.5 0H16.5C7.66344 0 0.5 7.16344 0.5 16V34C0.5 42.8366 7.66344 50 16.5 50H34.5C43.3366 50 50.5 42.8366 50.5 34V16C50.5 7.16344 43.3366 0 34.5 0Z" fill="#61DAFB"/>
<path fill-rule="evenodd" clip-rule="evenodd" d="M32.8198 20.4746C36.2468 21.5236 38.482 23.2151 38.482 25C38.482 26.7794 36.2578 28.4709 32.8527 29.5199C33.6491 33.0018 33.3031 35.7753 31.7598 36.665C31.3974 36.8737 30.98 36.9725 30.5187 36.9725C29.0084 36.9725 27.0312 35.9071 25.0322 34.0508C23.0331 35.9181 21.056 36.9945 19.5457 36.9945C19.0843 36.9945 18.6669 36.8957 18.31 36.687C16.7612 35.7973 16.4097 33.0183 17.2006 29.5254C13.7736 28.4764 11.5383 26.7849 11.5383 25C11.5383 23.2206 13.7626 21.5346 17.1786 20.4801C16.3823 16.9982 16.7283 14.2247 18.2715 13.335C18.634 13.1263 19.0514 13.0275 19.5127 13.0275V13.022C21.023 13.022 23.0001 14.0874 24.9992 15.9437C26.9983 14.0764 28.9754 13 30.4857 13V13.0055C30.9394 13.0063 31.3549 13.1052 31.7104 13.313C33.2592 14.2027 33.6106 16.9817 32.8198 20.4746ZM30.4802 14.2247C29.338 14.2276 27.6599 15.139 25.8724 16.8005C26.6468 17.6078 27.4157 18.5304 28.1571 19.5465C29.3928 19.6783 30.5681 19.8815 31.6445 20.1451C31.7653 19.5904 31.8642 19.0467 31.9246 18.5304C32.1772 16.4325 31.8532 14.8014 31.1063 14.373C30.936 14.2796 30.7328 14.2302 30.4802 14.2302V14.2247ZM24.126 16.8059C22.3356 15.1529 20.6495 14.2467 19.5127 14.2467V14.2522C19.2601 14.2522 19.0459 14.2961 18.8811 14.395C18.1397 14.8288 17.8212 16.46 18.0793 18.5579C18.1452 19.0686 18.2386 19.6014 18.3649 20.1506C19.4413 19.8815 20.6166 19.6783 21.8578 19.5465C22.5882 18.5304 23.3571 17.6133 24.126 16.8059ZM30.59 23.5062C30.8756 22.7757 31.1283 22.0453 31.3315 21.3368C30.612 21.1611 29.8596 21.0183 29.0797 20.903C29.3489 21.3204 29.618 21.7487 29.8706 22.1881C30.1287 22.6275 30.3649 23.0668 30.59 23.5062ZM28.8161 27.1858C28.3878 27.9272 27.9484 28.6302 27.4926 29.2838C26.6743 29.3551 25.845 29.3936 25.0102 29.3936C24.1809 29.3936 23.3516 29.3551 22.5388 29.2892C22.083 28.6357 21.6381 27.9382 21.2097 27.2023C20.7923 26.4828 20.4134 25.7524 20.0674 25.0165C20.4079 24.2805 20.7923 23.5446 21.2042 22.8252C21.6326 22.0838 22.072 21.3808 22.5278 20.7272C23.3461 20.6558 24.1754 20.6174 25.0102 20.6174C25.8395 20.6174 26.6688 20.6558 27.4816 20.7217C27.9374 21.3753 28.3823 22.0728 28.8106 22.8087C29.228 23.5281 29.607 24.2586 29.953 24.9945C29.607 25.7304 29.228 26.4664 28.8161 27.1858ZM31.3479 28.6577C31.1392 27.9437 30.8866 27.2078 30.59 26.4719C30.3649 26.9112 30.1287 27.3561 29.8761 27.7954C29.6235 28.2403 29.3543 28.6741 29.0852 29.097C29.8706 28.9817 30.6285 28.8334 31.3479 28.6577ZM25.0212 32.3318C24.5104 31.8046 23.9997 31.2169 23.4944 30.5744C23.9887 30.5963 24.4939 30.6128 25.0047 30.6128C25.5209 30.6128 26.0317 30.6018 26.5315 30.5744C26.0372 31.2169 25.5264 31.8046 25.0212 32.3318ZM18.6834 28.6632C19.4029 28.8389 20.1553 28.9817 20.9351 29.097C20.666 28.6796 20.4024 28.2513 20.1443 27.8119C19.8862 27.3725 19.65 26.9332 19.4248 26.4938C19.1392 27.2243 18.8866 27.9547 18.6834 28.6632ZM24.9937 17.6682C25.5045 18.1954 26.0152 18.7831 26.5205 19.4256C26.0262 19.4037 25.5209 19.3872 25.0102 19.3872C24.4939 19.3872 23.9832 19.3982 23.4834 19.4256C23.9777 18.7831 24.4884 18.1954 24.9937 17.6682ZM20.1388 22.2046C20.3914 21.7597 20.6605 21.3259 20.9296 20.903C20.1443 21.0183 19.3864 21.1666 18.6669 21.3368C18.8756 22.0508 19.1283 22.7867 19.4248 23.5227C19.65 23.0833 19.8862 22.6439 20.1388 22.2046ZM15.9594 27.7789C14.0152 26.9497 12.7576 25.8622 12.7576 25C12.7576 24.1378 14.0152 23.0449 15.9594 22.2211C16.4317 22.0178 16.9479 21.8366 17.4807 21.6664C17.7937 22.7428 18.2056 23.8632 18.7164 25.011C18.2111 26.1533 17.8047 27.2682 17.4971 28.3391C16.9534 28.1689 16.4372 27.9822 15.9594 27.7789ZM18.0958 31.4696C17.8431 33.5675 18.1672 35.1986 18.9141 35.627C19.0788 35.7204 19.2875 35.7698 19.5347 35.7753C20.677 35.7753 22.3576 34.8636 24.1479 33.1995C23.3736 32.3922 22.6047 31.4696 21.8633 30.4535C20.6276 30.3217 19.4523 30.1185 18.3759 29.8549C18.255 30.4096 18.1562 30.9533 18.0958 31.4696ZM31.9411 31.4421C32.1992 33.54 31.8807 35.1712 31.1392 35.605C30.9745 35.7039 30.7603 35.7478 30.5077 35.7478C29.3708 35.7478 27.6848 34.8416 25.8944 33.1886C26.6633 32.3812 27.4322 31.4641 28.1626 30.4481C29.4038 30.3162 30.5791 30.113 31.6555 29.8439C31.7818 30.3986 31.8807 30.9313 31.9411 31.4421ZM32.5342 28.3336C33.0669 28.1634 33.5832 27.9822 34.0555 27.7789C35.9997 26.9551 37.2573 25.8622 37.2628 25C37.2628 24.1378 36.0051 23.0503 34.061 22.2211C33.5777 22.0178 33.0614 21.8311 32.5177 21.6609C32.2102 22.7318 31.8038 23.8467 31.2985 24.989C31.8093 26.1368 32.2212 27.2572 32.5342 28.3336Z" fill="#61DAFB"/>
<path d="M25.0047 27.5099C26.3909 27.5099 27.5146 26.3862 27.5146 25.0001C27.5146 23.6139 26.3909 22.4902 25.0047 22.4902C23.6186 22.4902 22.4949 23.6139 22.4949 25.0001C22.4949 26.3862 23.6186 27.5099 25.0047 27.5099Z" fill="#61DAFB"/>
</g>
<defs>
<clipPath id="clip0">
<rect width="50" height="50" fill="white" transform="translate(0.5)"/>
</clipPath>
</defs>
</svg>
