<svg width="51" height="50" viewBox="0 0 51 50" fill="none" xmlns="http://www.w3.org/2000/svg">
<g clip-path="url(#clip0)">
<path opacity="0.195126" d="M34.5 0H16.5C7.66344 0 0.5 7.16344 0.5 16V34C0.5 42.8366 7.66344 50 16.5 50H34.5C43.3366 50 50.5 42.8366 50.5 34V16C50.5 7.16344 43.3366 0 34.5 0Z" fill="#CC0000"/>
<path fill-rule="evenodd" clip-rule="evenodd" d="M12.3401 33.7517H21.8201C21.8201 33.7517 20.0081 25.4837 26.0081 22.1357C27.3161 21.4997 31.4801 19.1237 38.2961 24.1637C38.5121 23.9837 38.7161 23.8397 38.7161 23.8397C38.7161 23.8397 32.4761 17.6117 25.5281 18.3077C22.0361 18.6197 17.7401 21.7997 15.2201 25.9997C12.7001 30.1997 12.3401 33.7517 12.3401 33.7517Z" fill="#CC0000"/>
<path fill-rule="evenodd" clip-rule="evenodd" d="M12.3401 33.7517H21.8201C21.8201 33.7517 20.0081 25.4837 26.0081 22.1357C27.3161 21.4997 31.4801 19.1237 38.2961 24.1637C38.5121 23.9837 38.7161 23.8397 38.7161 23.8397C38.7161 23.8397 32.4761 17.6117 25.5281 18.3077C22.0361 18.6197 17.7401 21.7997 15.2201 25.9997C12.7001 30.1997 12.3401 33.7517 12.3401 33.7517Z" fill="#CC0000"/>
<path fill-rule="evenodd" clip-rule="evenodd" d="M12.3401 33.7519H21.8201C21.8201 33.7519 20.0081 25.4839 26.0081 22.1359C27.3161 21.4999 31.4801 19.1239 38.2961 24.1639C38.5121 23.9839 38.7161 23.8399 38.7161 23.8399C38.7161 23.8399 32.4761 17.6119 25.5281 18.3079C22.0241 18.6199 17.7281 21.7999 15.2081 25.9999C12.6881 30.1999 12.3401 33.7519 12.3401 33.7519ZM32.0921 18.9799L32.1401 18.1759C32.0321 18.1159 31.7321 17.9719 30.9761 17.7559L30.9281 18.5479C31.3241 18.6799 31.7081 18.8239 32.0921 18.9799Z" fill="#CC0000"/>
<path fill-rule="evenodd" clip-rule="evenodd" d="M30.952 21.5239L30.904 22.2799C31.3 22.2919 31.696 22.3399 32.092 22.4239L32.14 21.6799C31.732 21.5959 31.336 21.5479 30.952 21.5239ZM26.512 17.7799H26.632L26.392 17.0479C26.02 17.0479 25.636 17.0719 25.24 17.1199L25.468 17.8279C25.816 17.7919 26.164 17.7799 26.512 17.7799ZM27.088 22.1959L27.364 23.0239C27.712 22.8559 28.06 22.7119 28.408 22.6039L28.144 21.8119C27.736 21.9319 27.388 22.0639 27.088 22.1959ZM21.64 19.0399L21.1 18.2119C20.8 18.3679 20.488 18.5359 20.164 18.7279L20.716 19.5679C21.028 19.3759 21.328 19.1959 21.64 19.0399ZM24.1 24.4399L24.676 25.3039C24.88 25.0039 25.12 24.7279 25.384 24.4519L24.844 23.6359C24.568 23.8879 24.316 24.1639 24.1 24.4399ZM22.36 28.3039L23.332 29.0719C23.38 28.6039 23.464 28.1359 23.584 27.6679L22.72 26.9839C22.564 27.4279 22.456 27.8719 22.36 28.3039ZM17.104 22.6039L16.252 21.8599C15.94 22.1599 15.64 22.4599 15.364 22.7599L16.288 23.5519C16.54 23.2279 16.816 22.9039 17.104 22.6039ZM13.48 27.9679L12.1 27.4639C11.872 27.9799 11.62 28.5799 11.5 28.9039L12.88 29.4079C13.036 28.9999 13.288 28.4119 13.48 27.9679ZM22.18 31.3519C22.204 31.9879 22.264 32.5039 22.324 32.8639L23.764 33.3799C23.656 32.9119 23.548 32.3839 23.476 31.8199L22.18 31.3519Z" fill="#CC0000"/>
</g>
<defs>
<clipPath id="clip0">
<rect width="50" height="50" fill="white" transform="translate(0.5)"/>
</clipPath>
</defs>
</svg>
