<svg width="34" height="38" viewBox="0 0 34 38" fill="none" xmlns="http://www.w3.org/2000/svg">
<path d="M13.2941 15.399H20.1509V10.2858C19.073 8.95274 14.5062 9.07385 13.2941 10.2858V15.399Z" fill="#CDCDCD"/>
<path d="M32.1617 4.23222C27.4876 1.46184 22.1545 0 16.7212 0C11.2879 0 5.95472 1.46184 1.28081 4.23222C0.453593 6.84553 0 10.2596 0 13.1989C0 23.4331 5.47552 32.7729 13.2941 36.6577C14.3948 37.2054 15.5418 37.6544 16.7217 38C17.9023 37.6547 19.0499 37.2052 20.151 36.657C27.968 32.7726 33.445 23.4325 33.445 13.1989C33.4448 10.2596 32.9876 6.84553 32.1617 4.23222ZM21.9656 27.1287L20.151 32.7968V18.8292C19.073 17.4952 14.5062 17.6168 13.2941 18.8292V32.7968L11.4797 27.1215C8.25159 23.5986 5.87768 18.6189 5.87768 13.1989C5.87637 11.7259 6.02281 10.2565 6.31482 8.81264C9.56958 7.27835 13.1233 6.48273 16.7216 6.48273C20.3199 6.48273 23.8737 7.27835 27.1284 8.81264C27.4216 10.2563 27.5689 11.7258 27.5681 13.1989C27.5676 18.6225 25.1973 23.6051 21.9656 27.1287Z" fill="#CDCDCD"/>
</svg>
