<svg width="37" height="38" viewBox="0 0 37 38" fill="none" xmlns="http://www.w3.org/2000/svg">
<path d="M32.6669 14.3136L32.644 14.2907C32.6422 14.2895 32.6407 14.2877 32.6398 14.2858L18.3544 0L4.06911 14.2854C4.06747 14.2871 4.06655 14.2893 4.06489 14.2904L4.04132 14.3132C1.85691 16.5099 0.469422 19.3737 0.0994435 22.4495C-0.270535 25.5253 0.398222 28.6365 1.9994 31.2886C3.60058 33.9407 6.04229 35.9815 8.93639 37.0864C11.8305 38.1913 15.0109 38.2972 17.972 37.3869C18.2212 37.3107 18.4875 37.3107 18.7367 37.3869C21.6975 38.2968 24.8777 38.1909 27.7717 37.0858C30.6656 35.9808 33.107 33.9401 34.7081 31.2882C36.3092 28.6363 36.978 25.5253 36.6082 22.4497C36.2383 19.3741 34.851 16.5103 32.6669 14.3136ZM9.14877 23.7339C9.07923 23.8034 9.02408 23.886 8.98647 23.9768C8.94884 24.0675 8.92947 24.1649 8.92949 24.2632C8.95491 26.7846 9.66746 29.2511 10.9904 31.3976C11.0205 31.4463 11.0344 31.5033 11.0301 31.5603C11.0259 31.6173 11.0037 31.6715 10.9667 31.7152C10.9298 31.759 10.8799 31.7898 10.8244 31.8034C10.7688 31.8171 10.7104 31.8128 10.6574 31.7912C9.66281 31.3729 8.75928 30.7647 7.99733 30.0009C6.43584 28.4391 5.558 26.3214 5.55658 24.1129C5.55516 21.9044 6.43029 19.7856 7.98979 18.2219L18.3544 7.85827L28.7185 18.2219C30.2782 19.7854 31.1536 21.9042 31.1522 24.1129C31.1509 26.3214 30.2729 28.4391 28.7113 30.0009C27.9493 30.7647 27.0458 31.3729 26.0514 31.7912C25.9983 31.8128 25.9398 31.8171 25.8843 31.8034C25.8288 31.7898 25.779 31.7588 25.7419 31.7152C25.705 31.6715 25.6827 31.6173 25.6785 31.5601C25.6742 31.5031 25.688 31.4461 25.7181 31.3974C27.0414 29.2511 27.7543 26.7846 27.7801 24.2632C27.7801 24.1649 27.7606 24.0675 27.7228 23.9766C27.685 23.8857 27.6296 23.8032 27.5599 23.7337L22.6576 18.5339C22.6088 18.4931 22.5473 18.4708 22.4837 18.4708C22.4202 18.4708 22.3586 18.4931 22.3099 18.5339C22.2611 18.5745 22.2282 18.6311 22.2168 18.6936C22.2053 18.7561 22.2162 18.8205 22.2476 18.8759C24.1515 22.3213 22.5143 27.2702 19.784 30.0009L19.7696 30.0153C19.3928 30.3881 18.884 30.5971 18.354 30.5969C17.8239 30.5967 17.3153 30.3873 16.9387 30.0144L16.9255 30.0009C14.1942 27.2702 12.5578 22.3219 14.4621 18.8766C14.4934 18.8213 14.5043 18.7569 14.4929 18.6944C14.4815 18.6318 14.4485 18.5752 14.3998 18.5346C14.351 18.4939 14.2894 18.4715 14.2259 18.4715C14.1624 18.4715 14.1008 18.4939 14.052 18.5346L9.14877 23.7339Z" fill="#CDCDCD"/>
</svg>
